<svg width="14" height="15" viewBox="0 0 14 15" fill="none" xmlns="http://www.w3.org/2000/svg">
<path d="M14 11.4482C14 11.7006 13.9439 11.9599 13.8247 12.2123C13.7056 12.4647 13.5513 12.7031 13.348 12.9274C13.0045 13.306 12.6259 13.5794 12.1983 13.7546C11.7777 13.9299 11.322 14.021 10.8312 14.021C10.1162 14.021 9.35203 13.8528 8.54582 13.5093C7.73961 13.1657 6.9334 12.7031 6.1342 12.1212C5.32799 11.5323 4.56385 10.8803 3.83475 10.1582C3.11267 9.42914 2.46069 8.665 1.87882 7.8658C1.30396 7.0666 0.841262 6.2674 0.504757 5.47521C0.168252 4.67601 0 3.91187 0 3.18277C0 2.70606 0.0841261 2.25038 0.252378 1.82974C0.420631 1.4021 0.687031 1.00951 1.05859 0.658989C1.50726 0.217326 1.998 0 2.51678 0C2.71307 0 2.90936 0.0420631 3.08463 0.126189C3.2669 0.210316 3.42814 0.336505 3.55433 0.518778L5.18077 2.81122C5.30696 2.98648 5.3981 3.14772 5.46119 3.30195C5.52429 3.44917 5.55934 3.59639 5.55934 3.72959C5.55934 3.89785 5.51027 4.0661 5.41212 4.22734C5.32098 4.38858 5.18778 4.55684 5.01953 4.72509L4.48673 5.27892C4.40961 5.35603 4.37456 5.44717 4.37456 5.55934C4.37456 5.61542 4.38157 5.6645 4.39559 5.72058C4.41663 5.77667 4.43766 5.81873 4.45168 5.86079C4.57787 6.09214 4.79519 6.39359 5.10366 6.75814C5.41913 7.12268 5.75563 7.49424 6.12018 7.8658C6.49875 8.23736 6.8633 8.58087 7.23485 8.89634C7.5994 9.20481 7.90085 9.41512 8.13921 9.54131C8.17426 9.55533 8.21632 9.57636 8.2654 9.5974C8.32148 9.61843 8.37757 9.62544 8.44066 9.62544C8.55984 9.62544 8.65098 9.58338 8.72809 9.50626L9.26089 8.98047C9.43615 8.80521 9.60441 8.67201 9.76565 8.58788C9.92689 8.48973 10.0881 8.44066 10.2634 8.44066C10.3966 8.44066 10.5368 8.4687 10.691 8.5318C10.8453 8.59489 11.0065 8.68603 11.1818 8.80521L13.5023 10.4527C13.6845 10.5789 13.8107 10.7261 13.8878 10.9014C13.9579 11.0766 14 11.2519 14 11.4482Z" fill="#FEEC47"/>
</svg>
